<?xml version="1.0" encoding="UTF-8" standalone="no"?>
<svg width="32" height="32" viewBox="0 0 32 32" fill="none" xmlns="http://www.w3.org/2000/svg">
  <!-- Fondo circular -->
  <circle cx="16" cy="16" r="16" fill="#4ade80"/>
  
  <!-- Hoja de cannabis estilizada -->
  <path d="M16 4C14.5 8 11 10.5 7 11C7 17 10 22 16 26C22 22 25 17 25 11C21 10.5 17.5 8 16 4Z" fill="#166534"/>
  
  <!-- Detalles de la hoja -->
  <path d="M16 8C15.5 10 14 12 12 13C12.5 16 14 19 16 21C18 19 19.5 16 20 13C18 12 16.5 10 16 8Z" fill="#22c55e"/>
  
  <!-- Símbolo de IA/análisis -->
  <path d="M16 14L13 18H19L16 14Z" fill="#ffffff"/>
  <circle cx="16" cy="17" r="1.5" fill="#ffffff"/>
</svg>
